<svg id="unknown" xmlns="http://www.w3.org/2000/svg" width="20" height="16" viewBox="0 0 20 16">
  <rect id="Rectangle_1517" data-name="Rectangle 1517" width="20" height="8" fill="rgba(236,236,236,0.58)"/>
  <rect id="Rectangle_1518" data-name="Rectangle 1518" width="20" height="8" transform="translate(0 8)" fill="#e8e8e8"/>
  <path id="Path_1361" data-name="Path 1361" d="M9.245,7.78a.12.12,0,0,1-.12-.12V7.34a1.214,1.214,0,0,1,.255-.805,3.894,3.894,0,0,1,.735-.645,3.44,3.44,0,0,0,.58-.48.733.733,0,0,0,.19-.51.631.631,0,0,0-.24-.515.968.968,0,0,0-.63-.2,1.028,1.028,0,0,0-.675.21.668.668,0,0,0-.255.54V5.1q0,.11-.12.11L7.8,5.16a.12.12,0,0,1-.12-.12v-.1a1.921,1.921,0,0,1,.3-1.065,1.983,1.983,0,0,1,.835-.72A2.839,2.839,0,0,1,10.045,2.9a2.752,2.752,0,0,1,1.195.245,1.807,1.807,0,0,1,1.075,1.7,1.662,1.662,0,0,1-.53,1.27,5.905,5.905,0,0,1-.56.44,3.5,3.5,0,0,0-.53.43.617.617,0,0,0-.17.44v.23a.12.12,0,0,1-.12.12Zm.54,2.24a.769.769,0,0,1-.79-.79.759.759,0,0,1,.22-.56A.8.8,0,0,1,10.345,9.8.75.75,0,0,1,9.785,10.02Z" transform="translate(0 2)" fill="#949494"/>
</svg>
